<?xml version="1.0" encoding="utf-8"?>
<!-- Generator: Adobe Illustrator 16.0.0, SVG Export Plug-In . SVG Version: 6.00 Build 0)  -->
<!DOCTYPE svg PUBLIC "-//W3C//DTD SVG 1.1//EN" "http://www.w3.org/Graphics/SVG/1.1/DTD/svg11.dtd">
<svg version="1.1" id="Layer_1" xmlns="http://www.w3.org/2000/svg" xmlns:xlink="http://www.w3.org/1999/xlink" x="0px" y="0px"
	 width="851.648px" height="280.132px" viewBox="0 0 851.648 280.132" enable-background="new 0 0 851.648 280.132"
	 xml:space="preserve">
<g id="Reference" display="none">
	<g id="_x31_PnoQf_1_" display="inline">
		
			<image overflow="visible" enable-background="new    " width="3021" height="2214" id="_x31_PnoQf_2_" xlink:href="ADA278F4B2A65525.jpeg"  transform="matrix(0.2415 0 0 0.2412 -29.2446 -161.2202)">
		</image>
	</g>
</g>
<g id="Logo">
	<g>
		<path fill="#DD9443" d="M688.175,145.712c2.812-56.655,34.006-63.37,35.814-63.681
			C718.456,80.526,688.175,145.712,688.175,145.712z"/>
		<path fill="none" stroke="#000000" stroke-width="2" stroke-miterlimit="10" d="M489.582,8"/>
		<path fill="none" stroke="#000000" stroke-width="2" stroke-miterlimit="10" d="M691.375,131.255"/>
		<path fill="#B2D787" d="M722.202,101.057c-23.229,0.346-58.081,35.497-30.827,30.2c0.445-0.088,0.885-0.178,1.318-0.275
			C718.745,125.15,722.202,101.057,722.202,101.057z"/>
		<path fill="#A1C178" d="M723.656,152.535c3.188-35.127-30.963-21.257-30.963-21.257v-0.297c0,0,3.421,22.993,31.296,19.879
			L723.656,152.535z"/>
		<path fill="none" stroke="#000000" stroke-width="2" stroke-miterlimit="10" d="M653.946,147.82"/>
		<path fill="#F2DEC9" d="M654.081,148.391c15.761-9.294,35.375,5.685,27.913,13.241c-7.463,7.56-26.441,26.889-31.61,20.414
			C645.213,175.574,644.296,155.151,654.081,148.391z"/>
		<g>
			<g>
				<g>
					<g>
						<g>
							<path fill="#85C1A2" d="M843.564,147.867c-0.141,1.078,1.531,0.69,1.836,0.854
								C845.018,146.891,843.13,147.921,843.564,147.867z"/>
							<path fill="#85C1A2" d="M838.286,130.753l0.725,0.189c0,0-0.52-0.559-1.039-1.115c-0.522-0.545-1.051-1.093-1.051-1.093
								L838.286,130.753z"/>
							<path fill="#85C1A2" d="M834.504,115.102c-1.12,1.164-0.584,2.49,0.191,3.949c0.772,1.453,1.785,3.055,1.62,4.566
								l-0.525,0.606l2.525,0.755C837.217,121.581,834.518,117.658,834.504,115.102z"/>
							<path fill="#85C1A2" d="M837.243,104.678c-0.821,0.945-1.616-1.451,0.466,2.091c0.039-0.235,0.082-0.316,0.121-0.459
								C837.682,105.974,837.498,105.504,837.243,104.678z"/>
							<path fill="#85C1A2" d="M837.83,106.311C838.565,107.951,838.267,104.873,837.83,106.311L837.83,106.311z"/>
							<path fill="#85C1A2" d="M833.938,99.009l1.897,1.712c0.4-0.724-0.38-2.707,0.39-2.199
								C834.665,96.546,834.309,97.312,833.938,99.009z"/>
							<path fill="#85C1A2" d="M831.093,97.955l0.91,0.883C832.157,98.529,832.099,98.197,831.093,97.955z"/>
							<path fill="#85C1A2" d="M833.902,100.756c0,0-0.476-0.483-0.945-0.967c-0.477-0.476-0.954-0.952-0.954-0.952
								c-0.267,0.507-1.086,0.935,0.798,0.911C831.949,99.928,832.9,100.022,833.902,100.756z"/>
							<path fill="#85C1A2" d="M834.109,102.253c-0.033,1.45,0.263,3.115-1.562,1.408c1.062,1.915,1.954,2.562,2.358,2.221
								C835.306,105.545,835.202,104.202,834.109,102.253z"/>
							<path fill="#85C1A2" d="M831.446,115.25l-0.295,1.803l1.327,1.062C831.834,117.583,832.269,114.875,831.446,115.25z"/>
							<path fill="#85C1A2" d="M828.021,85.48c-0.591,0.208-0.93,1.544-1.492,2.106l1.503,1.091
								C827.927,87.702,827.336,86.071,828.021,85.48z"/>
							<path fill="#85C1A2" d="M826.529,87.587c0,0-0.566-0.397-1.137-0.795c-0.566-0.389-1.139-0.777-1.139-0.777
								C825.41,87.975,826.036,88.071,826.529,87.587z"/>
							<path fill="#85C1A2" d="M828.084,99.029c0,0,0.945,0.669,1.891,1.339c0.938,0.696,1.876,1.392,1.876,1.392
								s-1.028-0.871-2.062-1.741c-1.04-0.854-2.092-1.672-2.092-1.672L828.084,99.029z"/>
							<path fill="#85C1A2" d="M822.285,77.273l2.022,0.333c0,0-0.824-0.207-1.65-0.415c-0.825-0.193-1.65-0.386-1.65-0.386
								L822.285,77.273z"/>
							<path fill="#85C1A2" d="M817.886,72.304c1.61,0.071,0.482-2.44,1.796-2.028c-1.371-1.25-3.169-1.732-4.773-2.121
								C816.283,68.881,817.271,70.149,817.886,72.304z"/>
							<path fill="#85C1A2" d="M812.351,67.396c0.712,0.322,1.599,0.522,2.558,0.759C814.169,67.773,813.358,67.483,812.351,67.396z
								"/>
							<path fill="#85C1A2" d="M822.024,82.279c0.181-0.375,0.735-1.249,0.19-2.657l-0.768,1.832
								C821.625,81.705,821.823,81.99,822.024,82.279z"/>
							<path fill="#85C1A2" d="M821.427,81.515l0.023-0.062c-0.617-0.899-1.045-1.523-1.229-1.791
								C820.379,79.893,820.753,80.444,821.427,81.515z"/>
							<path fill="#85C1A2" d="M822.165,82.49c-0.052-0.078-0.09-0.135-0.141-0.211C821.944,82.457,821.932,82.537,822.165,82.49z"
								/>
							<path fill="#85C1A2" d="M826.3,92.561c-1.575-0.806-4.021-2.799-3.744,0.43C824.09,93.276,823.936,91.397,826.3,92.561z"/>
							<path fill="#85C1A2" d="M821.142,84.736l1.186,2.409c0.348-0.292,0.625-1.065,1.426-0.716c0,0-0.649-0.429-1.301-0.858
								C821.796,85.153,821.142,84.736,821.142,84.736z"/>
							<polygon fill="#85C1A2" points="819.945,83.994 821.142,84.736 820.688,83.848 							"/>
							<path fill="#85C1A2" d="M814.415,71.906c-1.343-0.367-2.253-1.257-3.347-2.207c0.838,1.34,1.783,2.627,2.798,3.749
								C814.406,73.247,815.577,73.107,814.415,71.906z"/>
							<path fill="#85C1A2" d="M817.834,76.586c-0.081-0.038-0.161-0.106-0.24-0.139C817.585,76.662,817.629,76.792,817.834,76.586z
								"/>
							<path fill="#85C1A2" d="M800.596,60.139c0.003,0.123-0.018,0.257-0.02,0.386c0.078-0.067,0.145-0.125,0.228-0.197
								L800.596,60.139z"/>
							<path fill="#85C1A2" d="M813.801,73.852c0.521,1.08,1.282,1.322,2.112,1.482c-0.693-0.547-1.381-1.164-2.047-1.887
								C813.621,73.539,813.49,73.633,813.801,73.852z"/>
							<path fill="#85C1A2" d="M808.914,65.142c0.2,0.681,0.488,1.379,0.81,2.087C809.681,66.429,809.383,64.966,808.914,65.142z"/>
							<path fill="#85C1A2" d="M817.706,75.843c0.059,0.027,0.116,0.049,0.17,0.086C817.913,75.399,817.805,75.552,817.706,75.843z"
								/>
							<path fill="#85C1A2" d="M817.706,75.843c-0.575-0.305-1.201-0.395-1.793-0.509c0.562,0.448,1.121,0.835,1.681,1.113
								C817.595,76.26,817.644,76.031,817.706,75.843z"/>
							<path fill="#85C1A2" d="M790.634,66.295c1.078-1.176,4.268-0.61,5.06,2.263c2.574,0.618,4.823-4.323,4.886-8.033
								c-0.496,0.493-0.899,0.961-3.534,0.096c0.235,1.232,3.195,5.17,0.612,4.905c-3.114-1.469-1.789-2.15-2.592-3.825
								c-0.041,1.211-1.328,1.12-2.738,1.122c-1.411-0.006-2.938,0.083-3.486,1.472c0,0,0.726,0.205,1.448,0.411
								c0.724,0.217,1.447,0.434,1.447,0.434C791.503,65.529,790.251,65.5,790.634,66.295z"/>
							<path fill="#85C1A2" d="M804.341,63.919l0.947,0.582c-0.744-1.043-0.995-2.101-1.471-4.132
								c-1.917-0.602-2.586-0.366-3.017-0.041c0,0,1.005,0.904,2.012,1.809c0.98,0.927,1.966,1.853,1.966,1.853L804.341,63.919z"/>
							<path fill="#85C1A2" d="M808.878,67.863c-1.822,0.62-4.182-0.595-4.324,1.833c2.312,2.062,2.565,0.48,4.429,1.287
								c-3.913-3.306,1.734,0.358-0.213-2.952c0.934,0.505,1.646,1.095,2.302,1.667c-0.503-0.817-0.957-1.642-1.348-2.469
								c0.006,0.064,0.01,0.109,0.013,0.161l0.021,0.013l-0.021,0.016c0.009,0.312-0.03,0.457-0.122,0.189
								c-0.029,0.004-0.08-0.035-0.104-0.052c-0.19,0.146-0.408,0.229-0.624,0.299c-0.832-1.301,0.146-0.49,0.624-0.299
								c0.07-0.047,0.156-0.076,0.228-0.138c0.003-0.011,0.001-0.019,0-0.028c0.001,0-1.1-0.753-2.211-1.473
								c-1.117-0.708-2.234-1.416-2.234-1.416C805.943,65.417,806.993,66.297,808.878,67.863z"/>
							<path fill="#85C1A2" d="M818.028,92.732c0.046-0.207,0.151-0.269,0.252-0.345C817.934,92.239,817.749,92.219,818.028,92.732z
								"/>
							<path fill="#85C1A2" d="M817.812,90.498c0.394,0.161,1.139,0.026,1.613,1.096c0.104,1.122-0.695,0.44-1.146,0.793
								c0.753,0.324,2.346,1.398,1.886-0.907l-0.387-0.165c-0.558-1.973-0.272-5.321,0.115-5.173
								C818.963,87.513,818.352,88.569,817.812,90.498z"/>
							<path fill="#85C1A2" d="M813.626,79.27c0,0-0.834-0.658-1.667-1.316c-0.845-0.638-1.688-1.277-1.688-1.277l0.265,2.557
								l0.605-0.666C812.396,80.571,812.902,79.488,813.626,79.27z"/>
							<path fill="#85C1A2" d="M800.742,59.161l1.597-1.057c0,0-0.896,0.105-1.798,0.21c-0.893,0.119-1.784,0.237-1.784,0.237
								L800.742,59.161z"/>
							<polygon fill="#85C1A2" points="796.097,55.902 797.197,54.743 795.413,54.642 							"/>
							<path fill="#85C1A2" d="M642.053,197.791l0.941,0.664C642.612,198.104,642.312,197.908,642.053,197.791z"/>
							<path fill="#85C1A2" d="M638.39,191.019l-0.778,0.184C638.154,191.33,638.502,191.313,638.39,191.019z"/>
							<path fill="#85C1A2" d="M664.997,50.461c-2.354-0.322-5.394-1.085-4.237,0.286l1.422,1.151
								C663.116,50.934,664.079,50.578,664.997,50.461z"/>
							<path fill="#85C1A2" d="M621.208,127.884c0.201-0.123,0.411-0.252,0.619-0.377c-0.496-0.531-0.961-1.03-1.379-1.479
								C620.677,126.587,620.938,127.22,621.208,127.884z"/>
							<path fill="#85C1A2" d="M628.021,130.427c0,0-0.371,0.462-0.744,0.923c-0.366,0.468-0.733,0.937-0.733,0.937
								C627.01,131.886,627.495,131.289,628.021,130.427z"/>
							<path fill="#85C1A2" d="M672.171,226.322l1.979-0.812C672.578,224.486,672.773,225.682,672.171,226.322z"/>
							<path fill="#85C1A2" d="M742.708,35.189c-1.493-0.884-2.739-1.321-3.852-1.518C740.692,34.862,742.008,36.553,742.708,35.189
								z"/>
							<path fill="#85C1A2" d="M624.515,204.31c0.657,0.521,1.136,0.623,1.454,0.41C625.311,204.186,624.805,203.953,624.515,204.31
								z"/>
							<path fill="#85C1A2" d="M734.217,33.285c0.271,0.192,0.543,0.298,0.82,0.465c1.188-0.205,2.396-0.338,3.818-0.079
								C737.51,32.785,735.875,32.181,734.217,33.285z"/>
							<path fill="#85C1A2" d="M807.007,202.317c0.128-0.045,0.234-0.134,0.367-0.164C807.2,201.992,807.104,202.11,807.007,202.317
								z"/>
							<path fill="#85C1A2" d="M840.401,163.938c0.027,0.526-0.087,1.362-0.188,2.153
								C840.396,165.729,840.476,165.08,840.401,163.938z"/>
							<path fill="#85C1A2" d="M776.775,43.723C777.921,44.128,777.029,43.629,776.775,43.723L776.775,43.723z"/>
							<path fill="#85C1A2" d="M778.864,52.4c-0.309,0.06-0.582,0.195-0.792,0.54C778.348,52.609,778.611,52.447,778.864,52.4z"/>
							<path fill="#85C1A2" d="M722.605,43.886c-0.032,0-0.062-0.001-0.098-0.002C722.848,44.213,722.789,44.151,722.605,43.886z"/>
							<path fill="#85C1A2" d="M778.078,45.209c-0.314-0.385-0.707-0.774-1.171-1.123C777.077,44.312,777.431,44.662,778.078,45.209
								z"/>
							<path fill="#85C1A2" d="M778.213,44.364c0.347,0.241,0.619,0.431,0.878,0.611C779.354,44.785,779.315,44.554,778.213,44.364z
								"/>
							<path fill="#85C1A2" d="M775.204,43.11c0.642,0.258,1.196,0.598,1.703,0.976c-0.165-0.208-0.214-0.338-0.132-0.363
								C776.444,43.594,775.979,43.412,775.204,43.11z"/>
							<path fill="#85C1A2" d="M739.566,247.778c0.072,0.046,0.156,0.069,0.24,0.134
								C740.761,247.064,740.318,247.238,739.566,247.778z"/>
							<path fill="#85C1A2" d="M653.635,82.342c0.021-0.046,0.006-0.096,0.021-0.143c-0.046,0.022-0.104,0.05-0.148,0.067
								L653.635,82.342z"/>
							<path fill="#85C1A2" d="M652.123,85.879c-0.585-2.589,0.245-3.082,1.383-3.612c0,0-1.116-0.643-2.229-1.285
								c-1.125-0.629-2.25-1.259-2.25-1.259s0.738,1.564,1.518,3.102C651.312,84.364,652.123,85.879,652.123,85.879z"/>
							<path fill="#85C1A2" d="M653.541,212.164c0,0-0.131-0.726-0.263-1.449c-0.118-0.723-0.237-1.442-0.237-1.442
								c3.882,0.541,4.655,2.578,4.729-0.535c-2.102,1.729-3.822,0.072-5.444-1.668c-1.64-1.729-3.156-3.548-5.443-2.069
								l-0.055-2.008c0.229,0.412,0.537,0.281,0.768,0.688c0.109-2.043-1.007-1.941-2.413-1.844
								c-1.396,0.103-3.086,0.203-3.903-1.801c-0.442-1.478-0.282-2.754,0.777-2.24c0,0-0.706-0.521-1.411-1.043
								c-0.697-0.537-1.396-1.076-1.396-1.076c-0.375-0.883,0.56-1.133,0.936-0.271c0,0-0.71-1.02-1.391-2.061
								c-0.686-1.039-1.338-2.102-1.338-2.102l0.159-0.039c-1.081-0.238-2.979-1.134-3.823-1.636
								c0.166-1.498,0.791,0.349,1.269-0.241c0,0-0.59-0.498-1.181-0.996c-0.586-0.512-1.172-1.021-1.172-1.021
								c0.847-1.602,2.994-0.021,3.622,1.766c1.912-2.312,1.389-2.644,0.44-3.246c-0.931-0.588-2.315-1.475-1.804-4.593
								c0,0,0.389,0.531,0.777,1.062c0.395,0.522,0.79,1.05,0.79,1.05c2.256-2.642,0.513-4.035,1.474-7.271
								c-0.381,0.463-1.089,2.152-1.936,3.498c-0.852,1.336-1.867,2.321-3.019,1.153c0.103-0.935-0.075-2.017-1.604-3.218
								c1.836-0.604,0.905-1.928,0.277-3.773l2.503-0.562c-1.253-1.776-2.463-1.303-3.882-2.231c-0.305-2.36,1.562-3.25,3.082-4.104
								c-0.15-1.812-0.81-1.06-1.594-0.342c-0.778,0.713-1.691,1.398-2.347-0.75c0.42-3.254-0.931-5.195-2.795-8.869
								c0.699-2.285,1.589,0.261,2.254-0.594c0,0-0.546-0.445-1.092-0.893c-0.54-0.457-1.081-0.914-1.081-0.914
								c0.021-0.484,0.656-0.363,0.979-0.307c-0.872-1.612-2.575,0.017-3.368-2.629c-1.417-0.318-0.429-1.752,0.566-3.433
								c0.988-1.692,1.986-3.597,0.491-5.321c0.771-0.759,1.544,0.481,2.548,0.295c-0.913-2.258-1.188-3.256-1.577-4.151
								c-0.378-0.906-0.867-1.71-2.018-3.763c0,0,0.531-0.729,1.062-1.459c0.542-0.713,1.084-1.425,1.084-1.425
								c-2.269,1.986-4.075-1.3-5.336-4.404c-1.086,0.668-2.023,1.262-2.498,1.693c0,0-0.12-1.17-0.241-2.341
								c-0.106-1.175-0.186-2.36-0.186-2.36c0.529-0.441,1.28,0.21,2.165,1.153c-0.143-0.342-0.277-0.669-0.416-0.932
								c1.291-1.34,2.521-0.167,3.671,1.221c-0.634,0.401-1.266,0.8-1.876,1.188c1.295,1.383,2.804,2.662,4.314,2.729
								c-0.241-0.321-0.385-0.884-0.409-1.479c0.359,0.353,0.692,0.594,0.971,0.522c0.293-0.084-0.18-0.618-0.668-1.428l2.984-0.298
								l-1.054-0.473c0,0,0.731-1.215,1.504-2.394c0.77-1.181,1.564-2.326,1.564-2.326c-1.679-4.398-4.615-9.156-3.045-15.657
								c1.263,2.322,2.984,1.691,5.213,2.787c-1.542,0.238-1.771,1.476-1.786,2.962c-0.021,1.494,0.184,3.228-0.588,4.634
								c0.812-1.471,1.801-0.715,2.05-0.191c0,0-0.094-1.505-0.138-3.033c-0.05-1.526-0.034-3.069-0.034-3.069
								c1.812,0.912,1.858-0.508,3.23-1.48c-4.133-0.655-0.639-4.968-0.559-7.583c1.257,0.523,2.165,1.645,0.618,3.988
								c2.039-0.694,1.445-2.087,0.852-3.563c-0.604-1.464-1.215-3.009,0.686-3.696c-0.333,0.614-0.695,0.842-0.244,1.42
								c-0.238-2.032,2.721-4.927,3.204-3.484l-0.349,0.595c1.415-1.815,3.367-4.668,4.82-7.337c1.438-2.674,2.37-5.216,1.317-6.602
								c0.354,0.254,2.713,3.137,3.062,3.782c0.001,0-0.896-3.381-1.549-6.894c-0.68-3.502-1.107-7.122-1.107-7.122
								c0.763,1.311,2.902,2.655,4.625,4.205c1.729,1.546,3.037,3.26,2.332,5.173c1.055-0.489,2.296-1.078,3.23-3.379
								c-0.812,0.188-4.276-1.75-3.713-2.669c2.161,0.182,2.81,0.184,3.482,0.072c0.671-0.104,1.372-0.323,3.564-0.391
								c-1.248,0.255-3.338-4.017-1.816-5.096c0.227,0.708,3.003,3.385,2.819,4.161c0,0,0.104-1.557,0.266-3.129
								c0.156-1.57,0.371-3.152,0.371-3.152c-0.396,1.336,2.188,3.122,3.713,3.563c-0.896-0.453,3.045-2.153,3.752-3.142
								l-2.104,0.195c2.204-1.136,2.341-3.101,2.514-5.159c0.169-2.044,0.372-4.184,2.688-5.378c-0.102,1.131,1.58,5.68,4.014,4.95
								c-0.065-1.28-0.297-4.326,0.041-7.541c0.324-3.209,1.247-6.592,3.124-8.396l1.379,0.835c0,0,0.707-0.708,1.414-1.416
								c0.724-0.697,1.448-1.394,1.448-1.394c-0.453,2.041-1.448,5.356-2.391,8.653c-0.954,3.3-1.851,6.582-2.57,8.569
								c2.104,0.083,1.157,1.13,3.526-0.182c1.389,0.696-0.486,2.321-1.14,2.746c0,0,1.463-0.532,2.938-1.009
								c1.475-0.481,2.955-0.911,2.955-0.911c-1.363-2.38,3.351-4.317,2.352-6.298c0,0-1.389,1.276-2.699,2.591
								c-1.318,1.312-2.562,2.663-2.562,2.663c-0.691-1.157-0.606-3.313,0.305-5.36c0.897-2.043,2.646-3.974,4.97-4.564
								c1.484,0.601,0.805,4.8,1.233,5.603c0.203-1.085,3.476-3.115,4.087-2.596c0,0-0.348,0.491-0.691,0.981
								c-0.338,0.494-0.676,0.987-0.676,0.987c1.342,0.076,2.026-1.077,2.872-2.067c0.839-0.98,1.846-1.802,3.646-0.952
								c1.08-0.111,3.827,2.611,3.634,1.031c-2.301-2.617-5.053-11.7-4.329-14.255c0.226,0.052,1.903,0.405,3.693,0.95
								c1.793,0.539,3.688,1.279,4.449,1.921c1.121,1.031,0.655,2.562,0.201,4.051c-0.462,1.498-0.914,2.95,0.002,3.834
								c-0.073-0.734,0.725-1.799,1.082-2.15c1.21,0.437-0.082,2.308,2.246,1.609c0.002-2.773,4.938-0.422,0.812-2.444
								c2.294-1.083,2.608,0.222,5.395-0.156c-0.522-0.84-0.031-2.386,0.946-3.844c0.976-1.45,2.444-2.796,3.712-3.231
								c-0.12,0.699,0.48,1.579,0.769,1.982c5.158,0.115,7.86,1.438,12.557,1.811c0.394,0.685,2.554,1.699,1.482,2.774
								c0.705-0.413,1.417-1.274,2.858-1.166c2.447,2.675-3.203-0.015-1.438,3.05c0.345-1.562,3.891-1.737,6.081-2.35
								c-0.221-2.54-4.682-1.202-6.792-0.396c0.3-3.35,4.373-6.557,9.862-7.135c4.265-0.028,1.336,2.488,2.142,2.153
								c3.702,1.085,5.633,0.102,7.43-0.706c1.776-0.795,3.425-1.399,6.199,0.788c1.776,2.869-1.262,4.092-1.207,5.747
								c-3.342-0.263-4.401-2.82-6.614-3.333c0,0,0.602,0.427,1.198,0.854c0.59,0.434,1.181,0.868,1.181,0.868
								c-1.206,0.384-3.433,0.341-4.433-0.547c0.776,1.19,3.799,2.056,7.206,3.259c3.408,1.181,7.198,2.734,9.443,4.71
								c1.214-0.258,3.139-0.184,2.736-1.321l-1.799-0.486c-0.87-2.293,4.186-0.743,2.36-2.457c2.793-0.067,6.308-0.493,9.038,2.142
								l-0.605,2.469c0.295-0.661-1.346-2.421-2.595-2.219c0.918-0.138,1.744,1.252,2.667,2.419c0.93,1.169,1.952,2.132,3.486,1.182
								c0,0-0.321-0.688-0.646-1.377c-0.334-0.688-0.667-1.375-0.667-1.375c2.836,0.215,7.053-0.241,9.36,2.297
								c0.106-2.858-0.763-0.197-1.194-3.875c-0.1,2.042-1.857,0.829-3.536-0.212c-1.682-1.048-3.254-1.935-2.774,0.485
								c-0.198-2.027-0.953-2.854-1.817-3.661c-0.871-0.807-1.849-1.593-2.655-3.573c-0.276,0.772,0.318,1.884-2.03,0.271
								c-0.22,0.156-0.618,0.293-0.866,0.371c-0.068-0.056-0.091-0.082-0.146-0.137c0.036,0.056,0.062,0.098,0.102,0.153
								c-0.162,0.056-0.186,0.075,0.037,0.054c0.446,0.609,0.74,1.232,0.733,1.731c-2.052,1.025-5.965-0.843-7.696-0.501
								c-1.342-0.982,0.983-0.594,0.506-1.729l-2.579,0.495c0.492-1.747-3.015-4.361,1.022-3.934c0,0-0.816-0.337-1.64-0.674
								c-0.824-0.325-1.649-0.65-1.649-0.65c-1.615-1.662-4.281-2.944-6.209-2.721c-1.518-0.862-4.604,0.781-2.828-0.198
								c0,0-1.414-0.099-2.824-0.157c-1.41-0.064-2.815-0.088-2.815-0.088l0.048-0.449c-2.646-0.704-5.549-0.486-8.443-0.548
								c-2.91-0.059-5.812-0.398-8.801-2.24c-1.87,0.323-3.769,0.764-6.812,0.197l-0.579-1.562
								c-1.188,0.258-2.971-0.126-4.602-0.338c-1.628-0.211-3.098-0.257-3.562,0.582c-1.394-2.021-4.377-2.054-7.479-1.487
								c-3.11,0.554-6.3,1.714-8.448,1.742l0.219,2.024c-2.848,0.427-5.439,1.581-8.642,3.283l0.674,1.676
								c-1.258,1.097-3.176,1.311-5.369,1.51c-2.188,0.196-4.661,0.38-6.867,1.331c0.059-0.756,1.269-1.028,2.219-0.928
								c-3.396-0.924-6.029,0.935-8.358,2.949c-2.357,2.021-4.42,4.188-7.396,4.12c-0.827,1.188-1.737,1.45-2.754,1.511
								c0.104-0.062,0.183-0.145,0.232-0.239c-0.126,0.046-0.301,0.14-0.476,0.244c-0.646,0.024-1.344,0.008-2.041,0.096
								c0.691,0.091,1.324,0.141,1.798,0.055c-0.848,0.533-2.034,1.505-3.048,2.671l-1.563-1.289
								c-0.089,0.087-0.175,0.137-0.264,0.233c-1.63,0.204-0.486,1.404,0.941,2.198c-0.448,0.67-0.808,1.357-0.979,2.036
								c-1.352-0.971-2.014-0.205-2.707,0.572c-0.699,0.779-1.434,1.565-3.063,0.714c0.076,0.944-1.226,2.301-2.313,3.846
								c-1.095,1.544-1.969,3.267-1.146,4.807c-0.323-0.304-0.784-0.19-0.213-0.715c-1.47,0.737-2.938,1.531-3.342,3.212
								l-2.171-1.326c0,0-0.094,1.208-0.148,2.413c-0.047,1.198-0.094,2.396-0.094,2.396c-2.534,0.433-3.812,0.519-3.646-2.354
								c-0.8,2.879-1.275,3.829-1.728,4.711c-0.432,0.881-0.823,1.699-1.128,4.272l-1.07-1.186
								c-0.982,1.237-0.872,4.482-2.463,4.409c-2.25,0.439-4.985,3.861-7.725,8.092c-2.771,4.229-5.479,9.236-8.611,12.838
								c2.489,0.161,1.573,0.894,0.451,1.84c-1.123,0.946-2.458,2.144-0.846,2.981c-1.216,0.074-2.271,1.051-2.613-0.692
								c-0.364,2.392-1.364,3.898-2.062,5.35c-0.69,1.444-1.078,2.83-0.07,4.812c-1.218,0.207-1.265-1.427-2.026-1.154
								c0.113,0.438,0.497,1.716-0.271,2.013c-0.765,0.292-0.703-0.921-0.949-1.79c-1.18,4.808,2.101,6.096,5.103,7.157
								c-2.012,1.934-2.047,3.202-0.307,5.239c-1.174,0.598-2.506,1.781-2.335-1.16c-0.232,0.789-1.071,3.194-1.438,5.507
								c-0.37,2.309-0.293,4.482,0.978,4.688c-0.699,0.443-0.396,2.254-0.13,2.699c-0.392,3.625-0.637,3.952-0.441,7.54l0.426-0.988
								c3.073,1.432,0.653,2.938,1.13,5.805l-0.318-0.068c-0.973,3.33-0.608,4.054-0.34,4.727c0.299,0.688,0.502,1.324-0.369,4.727
								l1.858-0.584c2.089,0.053,1.646,1.5,1.009,3.432c-0.646,1.923-1.46,4.375-0.292,6.064l0.804-1.551
								c0.89,0.855-0.192,2.521-1.453,4.32c-1.267,1.794-2.705,3.73-2.664,4.848c-0.22,0.555-0.755-0.562-1.18-1.145
								c-0.436,3.084,0.259,3.104,1.216,2.816c0.971-0.283,2.233-0.824,3.12,1.064c-1.058,1.146-3.604,0.059-2.965,2.873
								c-0.296,0.855,1.41,2.502,3.107,4.384c1.692,1.899,3.378,4.015,2.992,6.306c0.603-1.213,1.222-2.371,2.72-0.957
								c0.772,1.246,0.73,3.447,1.083,5.48c0.347,2.025,1.076,3.875,3.168,4.199c-0.059,0.465-0.223,0.727-0.438,0.871
								c1.843,1.547,5.059,5.477,7.303,5.521c-2.16,2.722,0.57,5.161,3.245,7.101c2.68,1.959,5.295,3.469,3.01,5.494
								c0,0,1.21,1.24,2.462,2.434c1.245,1.201,2.531,2.355,2.531,2.355l-0.569,0.314c2.885,3.414,5.097,3.35,7.193,3.25
								c0.479,0.977-0.443,0.927-0.719,1.111c2.02,2.564,3.283,3.854,4.756,4.633c1.474,0.77,3.188,1.029,6.223,1.293l-0.672,1.945
								c0.928-0.066,2.382,1.881,4.562,3.957c2.158,2.08,5.086,4.271,8.438,4.666c-0.156,0.172-0.445,0.457-1.021,0.475
								c3.692,0.601,6.976,3.584,10.219,5.673c3.221,2.077,6.287,3.229,8.595,0.165c0,0,1.239-0.092,2.479-0.184
								c1.229-0.117,2.457-0.236,2.457-0.236c-2.789-1.061-2.336-1.768-1.479-2.412c0.863-0.646,2.128-1.275,1.157-2.172
								c2.235,0.207,5.13,3.568,2.313,3.261l-0.338-0.459c-0.979,1.69,0.714,2.483,2.588,3.097c1.871,0.615,3.903,1.037,3.589,2.279
								c5.834,1.021,11.592,2.141,17.368,2.883c5.769,0.741,11.558,1.1,17.188,0.584c0,0-0.396-0.693-0.793-1.386
								c-0.39-0.698-0.776-1.397-0.776-1.397s0.961-0.045,1.921-0.113c0.96-0.069,1.92-0.145,1.92-0.145
								c1.089,0.549,1.669,2.096-1.13,2.324c1.686,1.479,4.47-1.997,4.413-2.648c2.752,0.156,2.396,1.059,1.519,1.943
								c-0.879,0.863-2.281,1.665-1.438,1.566l2.242-0.588l-0.568-0.248c1.634-1.508,1.555-2.748,4.831-3.289
								c2.183,0.113,1.454,1.523,2.298,1.449c0.041,0.203,0.344,0.234,1.273-0.224c0,0,1.223-0.231,2.438-0.493
								c1.216-0.273,2.432-0.551,2.432-0.551s-0.636-0.42-1.271-0.84c-0.627-0.426-1.254-0.852-1.254-0.852
								c1.784-1.662,4.414-1.166,1.545-3.031c2.116,1.492,6.604,0.469,10.687-1.153c4.099-1.604,7.744-3.765,8.932-3.657
								c1.952-2.869,4.529-4.217,7.771-5.957c-1.035,0.061-2.802-1.884-0.021-3.232c0.938,2.57,2.476,2.308,4.305,1.568
								c1.827-0.74,3.892-1.959,6.094-1.193c-1.701-0.338,0.067-1.812,1.551-3.352c1.49-1.541,2.686-3.107,0.153-3.367
								c2.304-1.346,1.397,1.459,3.766,1.117c1.771-2.861,4.552-4.964,7.526-7.265c2.961-2.294,6.122-4.802,8.343-8.147
								c-0.478-0.529-2.132-0.186-1.902-2.146c0,0,1.322-0.262,2.661-0.559c1.335-0.314,2.669-0.633,2.669-0.633
								c0.658-1.507-2.445-3.514,1.17-4.474c-0.719,0.004-1.784-0.011-1.394-0.993c5.729-5.4,8.94-12.867,11.558-20.283
								c2.651-7.492,4.795-14.893,9.283-22.244c-1.709,1.905-1.593,0.453-1.38-1.166c-0.494,0.996-1.713-0.299-2.688-0.24
								c0,0,0.912-1.49,1.771-3.032c0.87-1.537,1.688-3.124,1.688-3.124c-1.257-0.73-1.137-2.477-1.068-4.165
								c0.079-1.688,0.11-3.317-1.146-3.688l0.379,2.065c-1.437-1.433-3.127-0.521-4.95,0.565c-1.826,1.103-3.806,2.369-5.701,2.029
								c1.587,1.52,0.155,3.277-1.18,5.141c-1.335,1.892-2.56,3.854-0.622,6.541c-0.961,0.816-1.047-1.073-2.021-0.728
								c1.396,1.421,1.44,2.884,0.107,5.179l-0.324-0.379c-0.675,3.508-1.752,5.864-3.073,8.195
								c-1.342,2.326-2.939,4.637-5.068,7.959l1.968,0.262c-0.942,1.455-1.649,1.512-2.418,2.019c0.85,1.51,1.428,0.462,2.023-0.618
								c0.591-1.075,1.217-2.178,2.281-0.697c-2.228,0.264-3.523,2.967-5.012,5.502c-1.464,2.537-3.114,4.881-5.361,4.332
								c-1.426,2.158,2.269,0.545,0.815,2.725l-1.375-0.084l0.896,1.406c-1.192,1.293-2.908,1.119-3.757,0.578
								c0.34-0.262,0.451-1.105,0.627-1.516c-1.188,0.496-1.988,1.781-2.617,3.005c-0.632,1.216-1.101,2.354-1.509,2.506
								c0,0,0.525-0.366,1.056-0.733c0.522-0.375,1.049-0.752,1.049-0.752c-1.707,3.14-4.372,6.064-7.062,8.89
								c-2.691,2.835-5.401,5.571-7.33,8.698l0.978,0.354c-1.554,2.339-2.587,2.806-3.71,3.197
								c-1.132,0.396-2.354,0.729-4.564,2.688l0.06-0.295c-0.476,1.393-1.565,2.643-3.008,3.396c0.714-1.65-3.433-0.31-2.371-2.296
								c-1.987,2.214-2.474,2.842-2.616,3.546c-0.157,0.702,0.021,1.454-0.954,3.831l-1.473-0.916
								c-0.588,1.785-0.37,2.494-2.966,4.105c1.709-2.172-2.649-1.279-0.873-3.936c-3.44-0.203-5.171,1.354-6.696,2.607
								c-1.508,1.246-2.784,2.139-4.836,0.32c-0.706,2.371,0.722,2.533,2.203,2.205c1.476-0.32,2.948-1.124,2.35-0.438
								c1.75,0.791-1.207,3.724-3.273,3.926c-2.01,0.521-4.787-3.963-9.459-2.766c0.479-0.09,0.438-0.397,0.911-0.498
								c-1.987-0.603-3.198,2.188-5.729,0.926c-0.812,2.672-2.882,0.34-2.771,3.521c0,0,1.104-0.361,2.205-0.725
								c1.098-0.372,2.18-0.771,2.18-0.771c-1.188,0.656-2.229,1.983-3.586,3.012c-1.352,1.02-3.022,1.742-5.295,1.068
								c0.274-0.675,1.465-1.643,2.271-2.225c-1.351-0.77-2.334,0.902-3.727,0.062c0.044-1.595,1.388-1.887,3.026-2.168
								c1.64-0.271,3.591-0.558,4.719-1.979c-1.471-1.084-4.731,3.029-3.854-0.557c-0.668,2.287-1.905,2.301-3.288,2.172
								c-1.396-0.14-2.921-0.396-4.486,1.35l0.111-1.906c-0.497,0.332-1.538,1.27-2.507,1.258c0,0,0.41-0.631,0.822-1.263
								c0.399-0.633,0.803-1.265,0.803-1.265c-1.261,1.104-2.564,0.691-3.817,0.123c-1.259-0.562-2.465-1.271-3.722-0.73
								c2.606,0.027,2.904,0.566,2.822,1.327c-0.08,0.753-0.562,1.688,0.586,2.373c-3.353,1.284-4.324-0.032-5.295-1.509
								c-0.987-1.5-1.989-3.161-5.589-3.049c0.978-0.158,3.558,1.441,1.958,2.205c-1.36-0.496-3.105-1.414-3.813-2.508
								c-4.778-0.23,0.481,2.035-1.694,2.928c-1.32-2.52-2.492,0.604-4.792,0.949l0.326-1.902c-2.612-1.11-3.161-0.235-3.671,0.66
								c-0.496,0.883-0.948,1.771-3.273,0.438c0,0,0.683-0.521,1.36-1.047c0.669-0.532,1.338-1.064,1.338-1.064
								s-0.675,0.021-1.35,0.043c-0.679,0.01-1.354,0.021-1.354,0.021l1.052-2c-3.111,0.891-3.9,0.229-6.337-1.174
								c0.211,1.486-1.403,3.255-3.827,2.48c-1.229-1.656,1.497-1.396-1.903-2.351c1.18-0.847,2.463-1.981,3.313,0.187
								c0.353-0.543,1.12-0.896,1.466-1.438c-1.265-1.799-4.084-1.758-5.25-2.213c0.414,0.246,0.907,0.547,1.084,0.906
								c0,0-1.397,0.185-2.818,0.32c-1.419,0.143-2.855,0.234-2.855,0.234c-0.441-0.981,0.383-1.26,1.177-1.534
								c-1.014-0.213-2.023,0.312-3.464-0.188c1.021-1.256,1.636-2.738,3.811-2.563c0,0.001-1.237-0.069-2.48-0.188
								c-1.244-0.104-2.499-0.252-2.499-0.252c0.015-0.752-1.276-2.77-0.468-3.002c-0.916-0.998-2.639-1.09-4.468-1.324
								c-1.818-0.231-3.746-0.625-4.853-2.094c-0.318,0.155-0.776,0.191-1.519-0.039c-2.528-2.176-3.594-5.369-7.908-6.197
								c0,0,0.044-0.889,0.087-1.775c0.061-0.885,0.117-1.768,0.117-1.768c-1.309-0.748-1.369,0.389-1.632,1.416
								c-0.26,1.021-0.73,1.951-2.987,0.604c-3.271-1.853,0.671-2.667,0.312-4.091c-1.117-0.107-2.744-0.204-4.166-0.814
								c-1.423-0.603-2.645-1.725-2.856-3.727C652.438,210.641,652.696,211.552,653.541,212.164z M633.044,180.808
								c0.631,0.561,2.308,1.459,1.448,2.365C632.128,183.207,632.871,182.194,633.044,180.808z M626.193,122.942
								c0.466,0.718-0.062,1.481-1.006,2.284C625.203,124.481,625.479,123.694,626.193,122.942z M763.969,40.33
								c-0.045,0.018-0.076,0.031-0.117,0.06C762.235,39.073,762.801,39.564,763.969,40.33z M767.482,42.458
								c0.472-0.112,0.539-0.371,0.475-0.684c-0.436,0.358-1.29,0.077-2.214-0.395C765.847,41.949,766.211,42.45,767.482,42.458z
								 M753.55,258.421l-0.867-0.315C754.249,257.171,753.89,257.761,753.55,258.421z"/>
							<path fill="#85C1A2" d="M627.233,130.121c-0.359,0.146-0.727,0.135-1.092,0.116
								C626.407,130.591,626.775,130.664,627.233,130.121z"/>
							<path fill="#85C1A2" d="M671.801,226.47c0.022,0.033,0.06,0.05,0.081,0.08c0.116-0.061,0.21-0.143,0.289-0.229
								L671.801,226.47z"/>
							<path fill="#85C1A2" d="M709.173,52.863c-0.747-0.16-1.2-0.432-1.526-0.744C707.692,52.593,708.082,52.917,709.173,52.863z"
								/>
							<path fill="#85C1A2" d="M788.283,48.812l-2.529-0.891c1.155,0.544,1.33,1.147,1.729,1.73
								C787.66,49.236,787.559,48.417,788.283,48.812z"/>
							<path fill="#85C1A2" d="M798.753,71.265c0.416,0.057,0.566,0.471,0.98,0.527l0.53-0.727
								C799.116,70.1,797.86,69.965,798.753,71.265z"/>
							<path fill="#85C1A2" d="M786.971,55.523c-0.689,1.483,0.907,1.832,2.521,2.551c-0.09-0.053-0.18-0.097-0.255-0.171
								C790.93,56.303,788.942,55.869,786.971,55.523z"/>
							<path fill="#85C1A2" d="M789.857,58.253c0.484,0.235,0.963,0.513,1.351,0.874C791.896,58.495,790.776,58.596,789.857,58.253z
								"/>
							<path fill="#85C1A2" d="M772.624,43.342c0.628,0.716,1.314-1.696,1.507-0.895c0.86-0.754-0.73-0.763-1.919-0.444
								C771.023,42.332,770.247,42.939,772.624,43.342z"/>
							<polygon fill="#85C1A2" points="785.276,60.78 785.846,58.768 784.186,59.633 							"/>
							<path fill="#85C1A2" d="M774.434,53.031c0,0,0.545,0.421,1.092,0.843c0.535,0.427,1.072,0.854,1.072,0.854
								c0.117-0.318,0.517-0.34,0.956-0.277C776.109,53.623,774.635,52.466,774.434,53.031z"/>
							<path fill="#85C1A2" d="M777.554,54.451c0.752,0.435,1.495,0.792,2.078,0.733C779.209,54.979,778.285,54.555,777.554,54.451z
								"/>
							<path fill="#85C1A2" d="M781.871,59.38l-0.463-0.758l-1.559-1.065c0,0,0.511,0.454,1.02,0.907
								C781.37,58.922,781.871,59.38,781.871,59.38z"/>
							<path fill="#85C1A2" d="M747.006,43.621c0,0-0.752,0.01-1.504,0.02c-0.75,0.021-1.5,0.041-1.5,0.041
								c-0.401,0.631,0.315,1.17,1.432,1.084C746.203,44.417,747.327,44.356,747.006,43.621z"/>
							<path fill="#85C1A2" d="M754.275,50.918c-0.625-0.601-0.562-1.046-0.814-1.792l-0.707,2.382L754.275,50.918z"/>
							<path fill="#85C1A2" d="M746.184,49.643c-0.418,0.612-4.296,1.24-0.838,1.696C745.735,50.713,748.59,50.689,746.184,49.643z"
								/>
							<polygon fill="#85C1A2" points="703.668,46.973 704.378,46.793 703.457,42.824 							"/>
							<path fill="#85C1A2" d="M673.646,69.524c3.143-0.801-0.694-2.545,2.369-2.956c0.154-1.217-2.519,0.333-2.291-0.766
								C672.604,67.673,671.48,67.729,673.646,69.524z"/>
							<path fill="#85C1A2" d="M673.727,65.803c0.186-0.295,0.361-0.636,0.53-1.039C673.902,65.269,673.779,65.575,673.727,65.803z"
								/>
							<polygon fill="#85C1A2" points="843.431,155.396 844.396,153.005 842.962,154.511 							"/>
							<path fill="#85C1A2" d="M840.589,150.692l2.604-0.522l-2.341-1.446C840.964,149.253,841.182,150.298,840.589,150.692z"/>
							<path fill="#85C1A2" d="M636.306,173.979l-0.64,0.035c-0.565,0.478-0.485,0.93-0.314,1.831L636.306,173.979z"/>
							<polygon fill="#85C1A2" points="645.539,198.548 645.336,198.134 643.838,200.143 							"/>
							<path fill="#85C1A2" d="M661.904,213.475c-0.574-0.677-1.688-1.026-2.249-1.729
								C661.309,212.798,660.072,215.768,661.904,213.475z"/>
						</g>
					</g>
				</g>
			</g>
		</g>
		<path fill="#C1E3D2" d="M792.602,220.419c-4.374,5.813-9.184,10.604-14.294,14.519c-0.007,0-0.014,0-0.014,0.007
			c-30.262,23.145-70.894,15.51-91.628,9.264c-0.042-0.015-0.093-0.025-0.136-0.043c-5.953-1.797-10.248-3.473-12.15-4.26
			c-0.721-0.299-1.101-0.465-1.101-0.465c0.947-0.234,1.872-0.484,2.771-0.754c11.521-3.438,19.021-9.523,23.836-16.531
			c12.507-18.191,6.947-42.549,6.947-42.549c0.007,0,0.007-0.007,0.014-0.007c76.461-48.073,53.318-90.766,13.208-91.298
			c-0.697-0.014-1.379-0.035-2.026-0.062c-0.157-0.007-0.311-0.014-0.458-0.021c-1.944-0.111-3.688-0.325-5.253-0.63
			c-10.188-1.957-12.729-7.685-11.889-14.145c1.451-11.054,12.837-24.224,12.837-24.224c8.576-11.413,24.657-8.646,24.657-8.646
			C782.724,50.057,833.204,166.362,792.602,220.419z"/>
		<path fill="#A1C178" d="M690.097,243.473c-0.472,0.134-0.94,0.25-1.422,0.354c-0.665,0.146-1.329,0.274-2.009,0.381
			c-0.042-0.017-0.093-0.027-0.136-0.043c-5.953-1.797-10.248-3.475-12.15-4.26c-0.721-0.301-1.101-0.467-1.101-0.467
			c0.947-0.232,1.872-0.482,2.771-0.754c-16.117-7.789-29.954-19.4-40.268-33.631c0.63-12.107,8.231-21.508,11.729-22.377
			c0.915-0.234,1.865-0.432,2.859-0.651c0.994-0.213,2.037-0.438,3.145-0.729c4.738-1.252,10.673-3.61,19.264-10.639
			c0.016-0.01,0.026-0.021,0.045-0.033c0.557-0.457,1.128-0.938,1.707-1.435c1.551-1.325,2.93-2.754,4.188-4.255
			c0-0.008,0-0.008,0.008-0.016l0.011-0.008c0-0.008,0.007-0.008,0.007-0.008c1.941-2.338,3.553-4.832,4.874-7.33
			c1.294-2.441,2.32-4.877,3.131-7.182v-0.008c0.579-1.645,1.05-3.229,1.429-4.676c0.007-0.008,0.007-0.008,0.007-0.016
			c1.295-4.959,1.555-8.479,1.555-8.479c0.422,0.851,0.836,1.701,1.25,2.539c7.396,15.204,12.552,28.417,15.865,39.842
			C718.871,220.875,706.972,238.901,690.097,243.473z"/>
		<path fill="#B2D787" d="M698.75,222.156c-0.8,10.971-3.615,19.27-9.791,21.316c-0.457,0.152-0.93,0.271-1.423,0.354
			c-0.743,0.125-1.458,0.236-2.146,0.338c-5.952-1.797-10.249-3.472-12.147-4.258c0.75-0.679,1.473-1.166,1.672-1.22
			c-16.116-7.789-29.952-19.401-40.268-33.631c0.63-12.11,8.231-21.505,11.729-22.376c0.914-0.235,1.865-0.43,2.858-0.652
			c0.991-0.213,2.034-0.441,3.145-0.732c4.739-1.25,10.672-3.607,19.263-10.639c0.017-0.007,0.028-0.021,0.043-0.031
			c0.561-0.459,1.132-0.937,1.708-1.434c1.554-1.328,2.934-2.754,4.188-4.255c0-0.007,0-0.007,0.007-0.015l0.007-0.006
			c0-0.008,0.008-0.008,0.008-0.008c1.943-2.341,3.555-4.834,4.873-7.332c1.295-2.441,2.323-4.875,3.134-7.183v-0.007
			c0.577-1.646,1.052-3.229,1.43-4.68c0.008-0.006,0.008-0.006,0.008-0.014c0-0.014,0.007-0.027,0.014-0.033
			c0.018-0.041,0.029-0.076,0.054-0.098c0-0.007,0-0.014,0.007-0.014C688.494,144.171,700.895,192.742,698.75,222.156z"/>
		<path fill="#F4A646" d="M687.538,155.011c0.356-42.886,36.451-72.976,36.451-72.976c-5.631-1.725-11.235,7.232-22.949-9.181
			c0,0-22.793,20.248-16.36,65.556L687.538,155.011z"/>
	</g>
	<text transform="matrix(0.9809 0 0 1 57.6548 221.6831)" fill="#C1E3D2" font-family="'PTSans-NarrowBold'" font-size="94.4746">Medical Center</text>
	<text transform="matrix(0.9124 0 0 1 2.9087 135.3628)" fill="#C1E3D2" font-family="'PTSans-NarrowBold'" font-size="101.5704">American Fertility</text>
</g>
</svg>
