<?xml version="1.0" encoding="utf-8"?>
<!-- Generator: Adobe Illustrator 16.0.0, SVG Export Plug-In . SVG Version: 6.00 Build 0)  -->
<!DOCTYPE svg PUBLIC "-//W3C//DTD SVG 1.1//EN" "http://www.w3.org/Graphics/SVG/1.1/DTD/svg11.dtd">
<svg version="1.1"
	 id="Layer_1" shape-rendering="auto" image-rendering="auto" text-rendering="auto" color-rendering="auto" color-interpolation="auto"
	 xmlns="http://www.w3.org/2000/svg" xmlns:xlink="http://www.w3.org/1999/xlink" x="0px" y="0px" width="308px" height="307px"
	 viewBox="-9.566 -8.5 308 307" enable-background="new -9.566 -8.5 308 307" xml:space="preserve">
<g opacity="0.5">
	<g>
		<path fill="#FFFFFF" stroke="#FFFFFF" stroke-width="15" stroke-miterlimit="10" d="M287.934,145
			c0,39.75-14.062,73.688-42.189,101.812C217.62,274.936,183.684,289,143.934,289s-73.689-14.062-101.812-42.188
			C13.998,218.686-0.066,184.75-0.066,145S13.996,71.312,42.122,43.188S104.184,1,143.934,1s73.688,14.062,101.811,42.188
			C273.87,71.314,287.934,105.25,287.934,145z M235.622,44.875c-17.531-16.031-37.734-26.719-60.609-32.062
			c10.97,17.062,20.156,35.203,27.562,54.422C214.761,60.953,225.778,53.5,235.622,44.875z M279.778,140.922
			c-1.031-34.969-13.734-65.062-38.109-90.281c-10.688,9.469-22.733,17.578-36.141,24.328c8.156,23.25,12.516,45.234,13.078,65.953
			H279.778z M194.981,70.75c-8.25-21.75-18.703-41.812-31.359-60.188c-5.531-0.844-10.733-1.312-15.608-1.406v73.547
			C163.106,82.047,178.761,78.062,194.981,70.75z M139.714,82.703V9.156c-4.781,0.094-9.938,0.562-15.469,1.406
			C111.684,28.937,101.229,49,92.886,70.75C109.105,78.062,124.714,82.047,139.714,82.703z M210.309,140.922
			c-0.562-19.406-4.689-40.172-12.375-62.297C180.872,86.219,164.231,90.344,148.011,91v49.922H210.309z M279.778,149.219h-61.172
			c-0.562,20.625-4.922,42.562-13.078,65.812c13.406,6.844,25.453,14.953,36.141,24.328
			C266.043,214.234,278.747,184.188,279.778,149.219z M112.855,12.812C89.98,18.156,69.777,28.844,52.247,44.875
			C62.09,53.5,73.105,60.953,85.293,67.234C92.699,48.11,101.886,29.969,112.855,12.812z M139.714,140.922V91
			c-16.125-0.656-32.719-4.781-49.781-12.375c-7.688,22.125-11.812,42.891-12.375,62.297H139.714z M210.309,149.219h-62.298V199
			c16.22,0.656,32.858,4.781,49.923,12.375C205.622,189.25,209.747,168.531,210.309,149.219z M235.622,245.125
			c-9.844-8.625-20.858-16.078-33.047-22.359c-7.406,19.125-16.594,37.267-27.562,54.422
			C197.886,271.844,218.09,261.156,235.622,245.125z M82.34,74.969c-13.406-6.844-25.453-14.953-36.141-24.328
			C21.824,75.766,9.122,105.859,8.09,140.922h61.172C69.824,120.203,74.183,98.219,82.34,74.969z M139.714,199v-49.781H77.558
			c0.562,19.312,4.688,40.031,12.375,62.156C106.997,203.781,123.59,199.656,139.714,199z M194.981,219.25
			c-16.22-7.312-31.875-11.297-46.97-11.953v73.547c4.875-0.094,10.077-0.562,15.608-1.406
			C176.184,261.062,186.636,241,194.981,219.25z M139.714,280.844v-73.547c-15,0.656-30.609,4.641-46.828,11.953
			c8.25,21.75,18.703,41.812,31.359,60.188C129.777,280.281,134.934,280.75,139.714,280.844z M82.34,215.031
			c-8.156-23.25-12.516-45.188-13.078-65.812H8.09c1.031,34.875,13.734,64.922,38.109,90.143
			C56.886,229.984,68.933,221.875,82.34,215.031z M112.855,277.188c-10.969-17.155-20.156-35.297-27.562-54.422
			c-12.188,6.281-23.203,13.734-33.047,22.359C69.777,261.156,89.98,271.844,112.855,277.188z"/>
	</g>
</g>
</svg>
