<?xml version="1.0" encoding="utf-8"?>
<!-- Generator: Adobe Illustrator 16.0.0, SVG Export Plug-In . SVG Version: 6.00 Build 0)  -->
<!DOCTYPE svg PUBLIC "-//W3C//DTD SVG 1.1//EN" "http://www.w3.org/Graphics/SVG/1.1/DTD/svg11.dtd">
<svg version="1.1" id="Layer_1" xmlns="http://www.w3.org/2000/svg" xmlns:xlink="http://www.w3.org/1999/xlink" x="0px" y="0px"
	 width="24px" height="24px" viewBox="0 0 24 24" enable-background="new 0 0 24 24" xml:space="preserve">
<path fill="#FD3832" d="M12,0C5.373,0,0,5.373,0,12s5.373,12,12,12s12-5.373,12-12S18.627,0,12,0z M16.441,16.893
	c-2.103,0.144-6.784,0.144-8.883,0C5.282,16.736,5.017,15.622,5,12c0.017-3.629,0.285-4.736,2.558-4.892
	c2.099-0.144,6.782-0.144,8.883,0C18.718,7.264,18.982,8.378,19,12C18.982,15.629,18.715,16.736,16.441,16.893z M10,9.658
	l4.917,2.338L10,14.342V9.658z"/>
</svg>
